#N canvas 61 150 1147 680.031 10;
#X obj 180 108 zexy/time;
#X obj 180 78 metro 1000;
#X floatatom 180 175 5 0 0 0 - - -, f 5;
#X floatatom 216 175 5 0 0 0 - - -, f 5;
#X floatatom 252 175 5 0 0 0 - - -, f 5;
#X obj 180 249 >=;
#X obj 180 218 gate;
#X obj 216 249 >=;
#X obj 216 218 gate;
#X obj 341 26 tgl 15 0 empty empty empty 17 7 0 10 -262144 -1 -1 1
1;
#X floatatom 379 26 5 0 0 0 - - -, f 5;
#X floatatom 415 26 5 0 0 0 - - -, f 5;
#X obj 180 284 &;
#X obj 180 356 sel 1;
#X obj 180 400 bng 15 250 50 0 empty empty empty 17 7 0 10 -262144
-1 -1;
#X obj 180 313 change;
#X obj 576 26 bng 15 250 50 0 empty empty empty 17 7 0 10 -262144 -1
-1;
#X obj 576 64 f;
#X floatatom 622 26 5 0 0 0 - - -, f 5;
#X text 556 3 snooze -- x minutes;
#X obj 434 137 f;
#X obj 470 136 f;
#X text 338 3 on;
#X text 375 3 set time hr:min (24h scale);
#X obj 575 92 t b f;
#X obj 470 165 +;
#X obj 526 193 % 60;
#X obj 470 196 t f f;
#X obj 684 26 loadbang;
#X msg 684 64 9;
#X obj 470 229 t f f;
#X obj 470 282 gate;
#X obj 499 255 > 60;
#X obj 470 303 / 60;
#X obj 470 326 t f f;
#X obj 499 350 % 60;
#X obj 470 374 -;
#X obj 470 396 t b f;
#X obj 434 165 +;
#X obj 136 357 tgl 15 0 empty empty empty 17 7 0 10 -262144 -1 -1 0
1;
#X text 525 218 snooze logic: add snooze time to current time and set
that as the new activation time;
#X obj 136 457 t 1 0;
#X obj 137 430 metro 200;
#X obj 121 522 *~;
#X obj 60 480 osc~ 880;
#X obj 303 534 dac~;
#X obj 181 24 loadbang;
#X msg 180 48 1;
#X obj 165 494 pipe 100;
#X obj 338 262 sel 0;
#X obj 338 290 t 0;
#X text 36 550 default sound: sine pulse;
#X text 203 395 TODO use this bang to e.g. play soundfile;
#X connect 0 0 2 0;
#X connect 0 1 3 0;
#X connect 0 2 4 0;
#X connect 1 0 0 0;
#X connect 2 0 6 1;
#X connect 2 0 20 1;
#X connect 3 0 8 1;
#X connect 3 0 21 1;
#X connect 5 0 12 0;
#X connect 6 0 5 0;
#X connect 7 0 12 1;
#X connect 8 0 7 0;
#X connect 9 0 6 0;
#X connect 9 0 8 0;
#X connect 9 0 49 0;
#X connect 10 0 5 1;
#X connect 11 0 7 1;
#X connect 12 0 15 0;
#X connect 13 0 14 0;
#X connect 15 0 13 0;
#X connect 15 0 39 0;
#X connect 16 0 17 0;
#X connect 17 0 24 0;
#X connect 18 0 17 1;
#X connect 20 0 38 0;
#X connect 21 0 25 0;
#X connect 24 0 21 0;
#X connect 24 1 25 1;
#X connect 25 0 27 0;
#X connect 26 0 11 0;
#X connect 27 0 30 0;
#X connect 27 1 26 0;
#X connect 28 0 29 0;
#X connect 29 0 18 0;
#X connect 30 0 31 1;
#X connect 30 1 32 0;
#X connect 31 0 33 0;
#X connect 32 0 31 0;
#X connect 33 0 34 0;
#X connect 34 0 36 0;
#X connect 34 1 35 0;
#X connect 35 0 36 1;
#X connect 36 0 37 0;
#X connect 37 0 20 0;
#X connect 37 1 38 1;
#X connect 38 0 10 0;
#X connect 39 0 42 0;
#X connect 41 0 43 1;
#X connect 41 1 48 0;
#X connect 42 0 41 0;
#X connect 43 0 45 0;
#X connect 43 0 45 1;
#X connect 44 0 43 0;
#X connect 46 0 47 0;
#X connect 47 0 1 0;
#X connect 48 0 43 1;
#X connect 49 0 50 0;
#X connect 50 0 15 0;
