#N canvas 333 23 1040 798 10;
#X msg 134 119 rewind;
#X obj 44 143 text define filelist;
#X obj 96 373 text get filelist;
#X obj 266 146 text size filelist;
#X floatatom 266 173 5 0 0 0 - - -, f 5;
#N canvas 0 23 437 520 arrays-inside 0;
#X obj 10 0 array define array0;
#X obj 10 20 array define array1;
#X obj 10 40 array define array2;
#X obj 10 60 array define array3;
#X obj 10 80 array define array4;
#X obj 10 100 array define array5;
#X obj 10 120 array define array6;
#X obj 10 140 array define array7;
#X obj 10 160 array define array8;
#X obj 10 180 array define array9;
#X restore 337 737 pd arrays-inside;
#X msg 61 119 clear;
#X obj 264 287 until;
#X obj 96 400 makefilename ~/Documents/sounds/%s;
#X obj 264 314 f;
#X obj 352 314 + 1;
#X obj 265 230 t f b;
#X msg 318 287 0;
#X obj 343 422 makefilename array%s;
#X obj 338 682 s pd-arrays-inside;
#X obj 97 601 soundfiler;
#X obj 141 509 symbol array0;
#X msg 97 574 read -resize \$1 \$2;
#X obj 343 449 t b s s;
#X obj 99 460 t s b;
#X obj 97 547 pack s s;
#X text 504 82 takes a text file of audio file names and automatically
loads them into buffers;
#X obj 264 341 t f f f f;
#X obj 372 574 f;
#X obj 507 420 * 20;
#X text 507 175 TODO allow selecting array by file name;
#X obj 338 628 pack f f s s s;
#X msg 338 655 obj \$1 \$2 \$3 \$4 \$5;
#X msg 427 574 symbol array;
#X msg 527 574 symbol define;
#X obj 343 520 t b b b b;
#X msg 612 452 clear;
#X msg 44 13 symbol ~/Documents/sounds/index.txt;
#X msg 44 67 read -c \$1;
#X obj 266 119 t b b;
#X obj 44 40 t b s;
#X obj 642 682 tof/menubutton 300 22 empty empty 0 grey90 black grey95
black 0;
#X msg 644 631 add \$1;
#X obj 642 712 unpack f s;
#X floatatom 643 737 5 0 0 0 - - -, f 5;
#X text 844 662 tof/menubutton;
#X msg 789 622 size 300 22 \, align 0;
#X obj 325 574 f 10;
#X obj 789 575 loadbang;
#X obj 641 593 cyclone/tosymbol;
#X connect 0 0 1 0;
#X connect 2 0 8 0;
#X connect 2 0 44 0;
#X connect 3 0 4 0;
#X connect 4 0 11 0;
#X connect 6 0 1 0;
#X connect 7 0 9 0;
#X connect 8 0 19 0;
#X connect 9 0 22 0;
#X connect 10 0 9 1;
#X connect 11 0 7 0;
#X connect 11 1 12 0;
#X connect 12 0 9 1;
#X connect 13 0 18 0;
#X connect 16 0 20 1;
#X connect 17 0 15 0;
#X connect 18 0 30 0;
#X connect 18 1 26 4;
#X connect 18 2 16 1;
#X connect 19 0 20 0;
#X connect 19 1 16 0;
#X connect 20 0 17 0;
#X connect 22 0 2 0;
#X connect 22 1 13 0;
#X connect 22 2 10 0;
#X connect 22 3 24 0;
#X connect 23 0 26 1;
#X connect 24 0 23 1;
#X connect 26 0 27 0;
#X connect 27 0 14 0;
#X connect 28 0 26 2;
#X connect 29 0 26 3;
#X connect 30 0 42 0;
#X connect 30 1 23 0;
#X connect 30 2 28 0;
#X connect 30 3 29 0;
#X connect 31 0 14 0;
#X connect 31 0 36 0;
#X connect 32 0 35 0;
#X connect 33 0 1 0;
#X connect 34 0 3 0;
#X connect 34 1 31 0;
#X connect 35 0 34 0;
#X connect 35 1 33 0;
#X connect 36 0 38 0;
#X connect 37 0 36 0;
#X connect 38 0 39 0;
#X connect 41 0 36 0;
#X connect 42 0 26 0;
#X connect 43 0 41 0;
#X connect 44 0 37 0;
