#N canvas 333 22 1040 798 10;
#X msg 134 51 rewind;
#X obj 44 73 text define filelist;
#X obj 96 373 text get filelist;
#X obj 266 149 text size filelist;
#X floatatom 266 176 5 0 0 0 - - -, f 5;
#X msg 266 122 bang;
#N canvas 0 22 437 520 arrays-inside 1;
#X obj 0 0 table array0;
#X obj 0 20 table array1;
#X obj 0 40 table array2;
#X obj 0 60 table array3;
#X obj 0 80 table array4;
#X obj 100 0 table array5;
#X obj 100 20 table array6;
#X obj 100 40 table array7;
#X obj 100 60 table array8;
#X obj 100 80 table array9;
#X restore 542 675 pd arrays-inside;
#X msg 44 23 read -c ~/Documents/sounds/index.txt;
#X msg 61 49 clear;
#X obj 264 287 until;
#X obj 96 422 makefilename ~/Documents/sounds/%s;
#X obj 264 314 f;
#X obj 352 305 + 1;
#X obj 265 230 t f b;
#X msg 318 278 0;
#X obj 343 421 makefilename array%s;
#X obj 267 641 pack f f s s;
#X msg 266 668 obj \$1 \$2 \$3 \$4;
#X obj 264 562 t b b b;
#X msg 348 611 symbol table;
#X obj 266 728 s pd-arrays-inside;
#X obj 98 619 soundfiler;
#X obj 141 509 symbol array0;
#X msg 98 591 read -resize \$1 \$2;
#X obj 342 458 t b s s;
#X obj 99 460 t s b;
#X obj 97 547 pack s s;
#X text 504 69 takes a text file of audio file names and automatically
loads them into buffers;
#X obj 727 481 mod 10;
#X obj 264 341 t f f f f;
#X obj 561 519 int;
#X obj 561 436 t f f;
#X obj 561 475 / 10;
#X obj 556 566 * 100;
#X obj 260 608 f;
#X obj 293 606 f;
#X obj 726 568 * 20;
#X msg 728 399 5;
#X text 773 396 rows in subpatch;
#X obj 728 337 loadbang;
#X text 507 167 TODO allow selecting array by file name;
#X connect 0 0 1 0;
#X connect 2 0 10 0;
#X connect 3 0 4 0;
#X connect 4 0 13 0;
#X connect 5 0 3 0;
#X connect 7 0 1 0;
#X connect 8 0 1 0;
#X connect 9 0 11 0;
#X connect 10 0 25 0;
#X connect 11 0 29 0;
#X connect 12 0 11 1;
#X connect 13 0 9 0;
#X connect 13 1 14 0;
#X connect 14 0 11 1;
#X connect 15 0 24 0;
#X connect 16 0 17 0;
#X connect 17 0 20 0;
#X connect 18 0 34 0;
#X connect 18 1 35 0;
#X connect 18 2 19 0;
#X connect 19 0 16 2;
#X connect 22 0 26 1;
#X connect 23 0 21 0;
#X connect 24 0 18 0;
#X connect 24 1 16 3;
#X connect 24 2 22 1;
#X connect 25 0 26 0;
#X connect 25 1 22 0;
#X connect 26 0 23 0;
#X connect 28 0 36 0;
#X connect 29 0 2 0;
#X connect 29 1 15 0;
#X connect 29 2 12 0;
#X connect 29 3 31 0;
#X connect 30 0 33 0;
#X connect 31 0 32 0;
#X connect 31 1 28 0;
#X connect 32 0 30 0;
#X connect 33 0 34 1;
#X connect 34 0 16 0;
#X connect 35 0 16 1;
#X connect 36 0 35 1;
#X connect 37 0 32 1;
#X connect 37 0 28 1;
#X connect 39 0 37 0;
